{
    "asset" : {
        "generator" : "Khronos glTF Blender I/O v1.7.33",
        "version" : "2.0"
    },
    "scene" : 0,
    "scenes" : [
        {
            "name" : "Scene",
            "nodes" : [
                3
            ]
        }
    ],
    "nodes" : [
        {
            "mesh" : 0,
            "name" : "MaterialFBXASC032FBXASC0352142148579"
        },
        {
            "children" : [
                0
            ],
            "name" : "StandkonsoleFBXASC032135",
            "rotation" : [
                -0.7071067094802856,
                0,
                0,
                0.70710688829422
            ],
            "scale" : [
                0.7377830147743225,
                0.7377830147743225,
                0.7377830147743225
            ]
        },
        {
            "children" : [
                1
            ],
            "name" : "Collada visual scene group",
            "rotation" : [
                0.7071068286895752,
                0,
                0,
                0.7071068286895752
            ]
        },
        {
            "children" : [
                2
            ],
            "name" : "Sketchfab_model",
            "rotation" : [
                -0.7071068286895752,
                0,
                0,
                0.7071068286895752
            ]
        }
    ],
    "materials" : [
        {
            "doubleSided" : true,
            "emissiveFactor" : [
                1,
                1,
                1
            ],
            "emissiveTexture" : {
                "index" : 0
            },
            "name" : "MaterialFBXASC032FBXASC0352142148579",
            "pbrMetallicRoughness" : {
                "baseColorFactor" : [
                    0,
                    0,
                    0,
                    1
                ],
                "metallicFactor" : 0
            }
        },
        {
            "doubleSided" : true,
            "name" : "MaterialFBXASC032FBXASC0352142150880",
            "pbrMetallicRoughness" : {
                "baseColorTexture" : {
                    "index" : 1
                },
                "metallicRoughnessTexture" : {
                    "index" : 2
                }
            }
        },
        {
            "doubleSided" : true,
            "emissiveFactor" : [
                1,
                1,
                1
            ],
            "emissiveTexture" : {
                "index" : 3
            },
            "name" : "MaterialFBXASC032FBXASC0352142171025",
            "pbrMetallicRoughness" : {
                "baseColorFactor" : [
                    0,
                    0,
                    0,
                    1
                ],
                "metallicFactor" : 0
            }
        },
        {
            "doubleSided" : true,
            "emissiveFactor" : [
                1,
                1,
                1
            ],
            "emissiveTexture" : {
                "index" : 4
            },
            "name" : "MaterialFBXASC032FBXASC0352142148966",
            "pbrMetallicRoughness" : {
                "baseColorFactor" : [
                    0,
                    0,
                    0,
                    1
                ],
                "metallicFactor" : 0
            }
        }
    ],
    "meshes" : [
        {
            "name" : "MaterialFBXASC032FBXASC0352142148579",
            "primitives" : [
                {
                    "attributes" : {
                        "POSITION" : 0,
                        "NORMAL" : 1,
                        "TEXCOORD_0" : 2
                    },
                    "indices" : 3,
                    "material" : 0
                },
                {
                    "attributes" : {
                        "POSITION" : 4,
                        "NORMAL" : 5,
                        "TEXCOORD_0" : 6
                    },
                    "indices" : 7,
                    "material" : 1
                },
                {
                    "attributes" : {
                        "POSITION" : 8,
                        "NORMAL" : 9,
                        "TEXCOORD_0" : 10
                    },
                    "indices" : 11,
                    "material" : 2
                },
                {
                    "attributes" : {
                        "POSITION" : 12,
                        "NORMAL" : 13,
                        "TEXCOORD_0" : 14
                    },
                    "indices" : 15,
                    "material" : 3
                }
            ]
        }
    ],
    "textures" : [
        {
            "sampler" : 0,
            "source" : 0
        },
        {
            "sampler" : 0,
            "source" : 1
        },
        {
            "sampler" : 0,
            "source" : 2
        },
        {
            "sampler" : 0,
            "source" : 3
        },
        {
            "sampler" : 0,
            "source" : 4
        }
    ],
    "images" : [
        {
            "bufferView" : 4,
            "mimeType" : "image/jpeg",
            "name" : "MaterialFBXASC032FBXASC0352142148579_emissive"
        },
        {
            "bufferView" : 9,
            "mimeType" : "image/jpeg",
            "name" : "MaterialFBXASC032FBXASC0352142150880_baseColor"
        },
        {
            "bufferView" : 10,
            "mimeType" : "image/png",
            "name" : "MaterialFBXASC032FBXASC0352142150880_metallicRoughness"
        },
        {
            "bufferView" : 15,
            "mimeType" : "image/png",
            "name" : "MaterialFBXASC032FBXASC0352142171025_emissive"
        },
        {
            "bufferView" : 20,
            "mimeType" : "image/jpeg",
            "name" : "MaterialFBXASC032FBXASC0352142148966_emissive"
        }
    ],
    "accessors" : [
        {
            "bufferView" : 0,
            "componentType" : 5126,
            "count" : 12,
            "max" : [
                8.815546035766602,
                13.717256546020508,
                10.815043449401855
            ],
            "min" : [
                -1.187379002571106,
                5.887876033782959,
                5.699370861053467
            ],
            "type" : "VEC3"
        },
        {
            "bufferView" : 1,
            "componentType" : 5126,
            "count" : 12,
            "type" : "VEC3"
        },
        {
            "bufferView" : 2,
            "componentType" : 5126,
            "count" : 12,
            "type" : "VEC2"
        },
        {
            "bufferView" : 3,
            "componentType" : 5123,
            "count" : 12,
            "type" : "SCALAR"
        },
        {
            "bufferView" : 5,
            "componentType" : 5126,
            "count" : 1009,
            "max" : [
                21.447513580322266,
                14.657188415527344,
                11.027176856994629
            ],
            "min" : [
                -21.447513580322266,
                -14.657182693481445,
                -11.027176856994629
            ],
            "type" : "VEC3"
        },
        {
            "bufferView" : 6,
            "componentType" : 5126,
            "count" : 1009,
            "type" : "VEC3"
        },
        {
            "bufferView" : 7,
            "componentType" : 5126,
            "count" : 1009,
            "type" : "VEC2"
        },
        {
            "bufferView" : 8,
            "componentType" : 5123,
            "count" : 1311,
            "type" : "SCALAR"
        },
        {
            "bufferView" : 11,
            "componentType" : 5126,
            "count" : 60,
            "max" : [
                21.338054656982422,
                14.303050994873047,
                8.567882537841797
            ],
            "min" : [
                -20.603561401367188,
                -13.456378936767578,
                2.907007932662964
            ],
            "type" : "VEC3"
        },
        {
            "bufferView" : 12,
            "componentType" : 5126,
            "count" : 60,
            "type" : "VEC3"
        },
        {
            "bufferView" : 13,
            "componentType" : 5126,
            "count" : 60,
            "type" : "VEC2"
        },
        {
            "bufferView" : 14,
            "componentType" : 5123,
            "count" : 72,
            "type" : "SCALAR"
        },
        {
            "bufferView" : 16,
            "componentType" : 5126,
            "count" : 4,
            "max" : [
                6.697556495666504,
                8.340469360351562,
                5.229385852813721
            ],
            "min" : [
                -1.6411778926849365,
                -1.27675199508667,
                3.2429020404815674
            ],
            "type" : "VEC3"
        },
        {
            "bufferView" : 17,
            "componentType" : 5126,
            "count" : 4,
            "type" : "VEC3"
        },
        {
            "bufferView" : 18,
            "componentType" : 5126,
            "count" : 4,
            "type" : "VEC2"
        },
        {
            "bufferView" : 19,
            "componentType" : 5123,
            "count" : 6,
            "type" : "SCALAR"
        }
    ],
    "bufferViews" : [
        {
            "buffer" : 0,
            "byteLength" : 144,
            "byteOffset" : 0
        },
        {
            "buffer" : 0,
            "byteLength" : 144,
            "byteOffset" : 144
        },
        {
            "buffer" : 0,
            "byteLength" : 96,
            "byteOffset" : 288
        },
        {
            "buffer" : 0,
            "byteLength" : 24,
            "byteOffset" : 384
        },
        {
            "buffer" : 0,
            "byteLength" : 340751,
            "byteOffset" : 408
        },
        {
            "buffer" : 0,
            "byteLength" : 12108,
            "byteOffset" : 341160
        },
        {
            "buffer" : 0,
            "byteLength" : 12108,
            "byteOffset" : 353268
        },
        {
            "buffer" : 0,
            "byteLength" : 8072,
            "byteOffset" : 365376
        },
        {
            "buffer" : 0,
            "byteLength" : 2622,
            "byteOffset" : 373448
        },
        {
            "buffer" : 0,
            "byteLength" : 201123,
            "byteOffset" : 376072
        },
        {
            "buffer" : 0,
            "byteLength" : 322216,
            "byteOffset" : 577196
        },
        {
            "buffer" : 0,
            "byteLength" : 720,
            "byteOffset" : 899412
        },
        {
            "buffer" : 0,
            "byteLength" : 720,
            "byteOffset" : 900132
        },
        {
            "buffer" : 0,
            "byteLength" : 480,
            "byteOffset" : 900852
        },
        {
            "buffer" : 0,
            "byteLength" : 144,
            "byteOffset" : 901332
        },
        {
            "buffer" : 0,
            "byteLength" : 96523,
            "byteOffset" : 901476
        },
        {
            "buffer" : 0,
            "byteLength" : 48,
            "byteOffset" : 998000
        },
        {
            "buffer" : 0,
            "byteLength" : 48,
            "byteOffset" : 998048
        },
        {
            "buffer" : 0,
            "byteLength" : 32,
            "byteOffset" : 998096
        },
        {
            "buffer" : 0,
            "byteLength" : 12,
            "byteOffset" : 998128
        },
        {
            "buffer" : 0,
            "byteLength" : 260363,
            "byteOffset" : 998140
        }
    ],
    "samplers" : [
        {
            "magFilter" : 9729,
            "minFilter" : 9987
        }
    ],
    "buffers" : [
        {
            "byteLength" : 1258504,
            "uri" : "data:application/octet-stream;base64,"
        }
    ]
}
